PathFileType	4	(X/Y/Z)	C:\Users\Basilio\Documents\Thesis Gigler\squatting_fais\c3dfiles\038\SJ_pre3\markers_experimental.trc
DataRate	CameraRate	NumFrames	NumMarkers	Units	OrigDataRate	OrigDataStartFrame	OrigNumFrames
200.000000	200.000000	4	61	mm	200.000000	0	2059
Frame#	Time	FHD			LBHD			RBHD			C7			T10			CLAV			LSHO			LUUPA			LMUPA			LDUPA			LLEP			LMEP			LRAD			LUL			LRFIN			RSHO			RUPA1			RMUPA			RDUPA			RLEP			RMEP			RRAD			RUL			RUFIN			LASI			RASI			USACR			LSACR			RSACR			LTHI1			LTHI2			LTHI3			LTHI4			LLFC			LMFC			LTIB1			LTIB2			LTIB3			LTIB4			LLMAL			LMMAL			LHEE			LMT1			LMT2			LMT5			RTHI			RTHI2			RTHI3			RTHI4			RLFC			RMFC			RTIB1			RTIB2			RTIB3			RTIB4			RLMAL			RMMAL			RHEE			RMT1			RMT2			RMT5			
		X1	Y1	Z1	X2	Y2	Z2	X3	Y3	Z3	X4	Y4	Z4	X5	Y5	Z5	X6	Y6	Z6	X7	Y7	Z7	X8	Y8	Z8	X9	Y9	Z9	X10	Y10	Z10	X11	Y11	Z11	X12	Y12	Z12	X13	Y13	Z13	X14	Y14	Z14	X15	Y15	Z15	X16	Y16	Z16	X17	Y17	Z17	X18	Y18	Z18	X19	Y19	Z19	X20	Y20	Z20	X21	Y21	Z21	X22	Y22	Z22	X23	Y23	Z23	X24	Y24	Z24	X25	Y25	Z25	X26	Y26	Z26	X27	Y27	Z27	X28	Y28	Z28	X29	Y29	Z29	X30	Y30	Z30	X31	Y31	Z31	X32	Y32	Z32	X33	Y33	Z33	X34	Y34	Z34	X35	Y35	Z35	X36	Y36	Z36	X37	Y37	Z37	X38	Y38	Z38	X39	Y39	Z39	X40	Y40	Z40	X41	Y41	Z41	X42	Y42	Z42	X43	Y43	Z43	X44	Y44	Z44	X45	Y45	Z45	X46	Y46	Z46	X47	Y47	Z47	X48	Y48	Z48	X49	Y49	Z49	X50	Y50	Z50	X51	Y51	Z51	X52	Y52	Z52	X53	Y53	Z53	X54	Y54	Z54	X55	Y55	Z55	X56	Y56	Z56	X57	Y57	Z57	X58	Y58	Z58	X59	Y59	Z59	X60	Y60	Z60	X61	Y61	Z61	

1	0	-229.3598937988282	1752.74169921875	-926.4291992187502	-394.080047607422	1705.234008789063	-958.8037109375002	-359.0048828125001	1688.335327148438	-817.873718261719	-425.1604614257814	1526.162841796875	-896.4050292968752	-433.7440490722657	1242.345947265625	-894.8154907226565	-284.2337951660157	1503.1669921875	-915.4077148437502	-375.7135620117188	1553.302368164063	-1066.908569335938	-447.3679199218751	1379.726806640625	-1226.162719726563	-408.4844665527345	1386.157104492188	-1257.1181640625	-437.8002929687501	1338.768188476563	-1280.91455078125	-427.0394592285157	1299.2138671875	-1322.161010742188	-414.8718566894532	1237.114013671875	-1276.8681640625	-297.9846496582032	1116.254516601563	-1520.1484375	-368.8096313476563	1103.209106445313	-1528.6171875	-287.6485900878907	1099.662475585938	-1598.966552734375	-334.6878967285157	1534.330200195313	-746.1460571289064	-373.4389648437501	1396.753295898438	-573.1710205078126	-334.6622924804688	1369.072509765625	-563.2861328125001	-377.3197326660157	1343.645874023438	-527.5466918945314	-376.0619201660157	1288.392333984375	-480.273651123047	-394.8611145019532	1230.473876953125	-531.2745361328126	-272.4467773437501	1078.191772460938	-318.8720703125001	-339.1673889160157	1083.433349609375	-291.2127075195313	-260.2328491210938	1055.322265625	-236.2066192626954	-294.2448730468751	1046.033203125	-1027.3603515625	-278.7651977539063	1051.385620117188	-779.134460449219	-451.0888061523439	1104.42138671875	-894.869567871094	-468.138153076172	1076.06591796875	-921.0310668945315	-462.3192749023439	1075.565063476563	-864.946716308594	-372.7048950195313	731.8218994140626	-1096.351806640625	-350.3932189941407	649.7734985351564	-1095.348754882813	-303.2816467285157	649.0757446289064	-1077.244506835938	-382.9557189941407	603.0180664062501	-1076.683715820313	-382.5756225585938	540.9318237304689	-1075.6171875	-360.5993957519532	518.0903320312501	-958.5509033203127	-350.6663208007813	345.2781982421876	-1032.10009765625	-399.8695373535157	312.2333984375001	-1100.016357421875	-364.2583618164063	303.0000915527344	-1073.658813476563	-374.6514892578126	221.5470886230469	-1054.976440429688	-460.5422668457032	86.90408325195314	-1087.666748046875	-418.401336669922	97.14792633056643	-1018.152709960938	-501.6110229492189	43.98545074462891	-1036.36328125	-290.4315795898438	46.32184219360352	-1051.155639648438	-290.2710571289063	48.51231765747072	-1102.635375976563	-334.2050170898438	29.5492057800293	-1146.715698242188	-369.2069091796876	787.3970336914065	-719.0278930664064	-342.7372436523438	726.2083740234376	-711.8679199218751	-309.4913330078126	722.5633544921876	-713.6041259765626	-382.3430480957032	651.8109741210939	-729.2982177734376	-387.702362060547	513.7948608398439	-733.3552856445314	-376.8876953125001	507.8503417968751	-853.8519287109377	-351.0474243164063	335.9001770019532	-748.5321655273439	-432.143768310547	260.3340148925782	-715.0036010742189	-385.354705810547	261.3045959472657	-721.8154907226564	-373.9395141601563	209.6976470947266	-747.1660766601564	-447.2574462890626	92.27776336669923	-722.7322998046876	-406.0749511718751	93.49069213867189	-795.922546386719	-491.967254638672	40.52450180053712	-791.8112792968752	-280.5848999023438	48.72348785400392	-733.5173339843751	-294.1929321289063	53.24330139160158	-689.0482788085939	-344.7512817382813	34.65123748779298	-652.9776000976564	
2	0.005	-229.625473022461	1752.895629882813	-926.450134277344	-394.4754638671876	1705.308349609375	-958.852478027344	-359.3799743652344	1688.490478515625	-817.8403930664065	-425.4200439453126	1526.062133789063	-896.3818359375002	-433.4855957031251	1242.303955078125	-894.8183593750002	-284.3703002929688	1503.392822265625	-915.4458618164065	-376.0794982910157	1553.494750976563	-1066.818603515625	-447.2788696289064	1379.834594726563	-1226.159912109375	-408.4367675781251	1386.444702148438	-1257.154052734375	-437.5785522460939	1338.953735351563	-1280.981689453125	-426.7146301269532	1299.503051757813	-1322.269897460938	-414.3623962402345	1237.438354492188	-1277.010131835938	-296.9978942871094	1117.305786132813	-1520.238403320313	-367.7167358398438	1103.892578125	-1528.896240234375	-286.7302551269532	1101.08837890625	-1599.262451171875	-335.0322265625001	1534.62255859375	-746.2161254882814	-374.0582580566407	1396.970581054688	-573.4578857421876	-334.5690307617188	1369.77099609375	-563.1053466796876	-377.2372131347657	1344.151123046875	-527.3238525390626	-375.8214416503907	1289.077758789063	-479.9319152832032	-394.5557861328126	1231.140747070313	-531.0927124023439	-271.1725769042969	1079.926513671875	-318.1560974121094	-338.3229980468751	1084.781005859375	-290.3036804199219	-259.2951660156251	1056.9423828125	-235.2841186523438	-294.2559204101563	1046.078125	-1027.4013671875	-278.6707153320313	1051.331787109375	-779.171325683594	-450.9614868164064	1104.480346679688	-894.8276367187502	-468.002166748047	1076.152709960938	-921.023864746094	-460.641815185547	1075.491455078125	-865.084655761719	-372.8425292968751	731.7866210937501	-1096.341796875	-350.5271911621094	649.7813110351564	-1095.3515625	-303.2971496582032	649.0492553710939	-1077.285522460938	-382.9919433593751	603.0156250000001	-1076.664916992188	-382.6798706054688	540.9323120117189	-1075.631103515625	-360.6969299316407	518.1176147460939	-958.5901489257815	-350.6663208007813	345.2781982421876	-1032.10009765625	-399.9204101562501	312.1711425781251	-1100.024536132813	-364.2662353515626	303.0264587402344	-1073.635620117188	-374.7056274414063	221.5572967529297	-1054.975830078125	-460.5852966308595	86.9224319458008	-1087.676147460938	-418.3834838867189	97.15669250488284	-1018.10498046875	-501.611053466797	43.98545455932618	-1036.363159179688	-290.4568786621094	46.32025527954102	-1051.250122070313	-290.2723693847657	48.49499511718751	-1102.631469726563	-334.2148132324219	29.55060195922852	-1146.736694335938	-369.0623474121094	787.396423339844	-719.0903930664064	-342.7159118652344	726.1524658203126	-712.0295410156251	-309.3936157226563	722.5385131835939	-713.7111206054689	-382.2885131835938	651.8535156250001	-729.3355712890626	-387.7017211914064	513.8153686523439	-733.3681030273439	-376.9555358886719	507.8739318847657	-853.8900146484377	-351.0501098632813	335.8811645507813	-748.5274047851564	-432.7053222656251	260.4548950195313	-714.4598388671876	-385.3523254394532	261.3030090332032	-721.8284301757814	-373.9232482910157	209.7314605712891	-747.1580200195314	-447.238983154297	92.28753662109376	-722.6926269531251	-406.0387268066407	93.45717620849611	-795.9335937500002	-491.9846496582032	40.51753616333009	-791.7915039062502	-280.6035461425782	48.777645111084	-733.5632934570314	-294.1935119628907	53.24785232543947	-689.0534667968751	-344.7384948730469	34.61624908447266	-652.9911499023439	
3	0.01	-229.880355834961	1753.056640625	-926.5363769531252	-394.8936157226564	1705.422241210938	-958.8384399414065	-359.7673950195313	1688.622680664063	-817.8341064453127	-425.6313781738282	1525.989868164063	-896.3536376953127	-433.2395629882814	1242.257934570313	-894.859802246094	-284.5350341796876	1503.659912109375	-915.4356689453127	-376.3572082519532	1553.653930664063	-1066.730834960938	-447.2158508300782	1379.902587890625	-1226.173583984375	-408.3883361816407	1386.674682617188	-1257.195434570313	-437.393768310547	1339.126220703125	-1281.038208007813	-426.4435424804689	1299.743041992188	-1322.371459960938	-413.7821655273439	1237.66455078125	-1277.186645507813	-296.0015869140626	1118.2646484375	-1520.50244140625	-366.6484069824219	1104.574584960938	-1529.241943359375	-285.3413391113282	1101.705078125	-1599.590576171875	-335.3678283691407	1534.83154296875	-746.2366943359376	-373.6448364257813	1397.814086914063	-573.0523071289064	-334.8911132812501	1370.0751953125	-563.2068481445314	-377.2451171875001	1344.728393554688	-527.1690063476564	-375.5765075683594	1289.786254882813	-479.5184020996095	-394.0054931640626	1231.666748046875	-530.5607910156251	-270.4981079101563	1080.981811523438	-317.2478332519532	-337.4722595214844	1085.879516601563	-289.6183471679688	-258.4518127441407	1058.598266601563	-234.3692169189454	-294.2608947753907	1046.056762695313	-1027.495483398438	-278.4904479980469	1051.29736328125	-779.2605590820315	-450.8647460937501	1104.566528320313	-894.794616699219	-467.9212036132814	1076.250732421875	-920.947692871094	-460.5060424804689	1075.566162109375	-865.0462036132815	-372.9357910156251	731.8268432617189	-1096.366577148438	-350.5996093750001	649.7562866210939	-1095.39697265625	-302.5509948730469	648.4879150390626	-1077.409057617188	-383.1135864257813	603.0119628906251	-1076.713500976563	-382.7975463867188	540.9877319335939	-1075.671997070313	-360.6969299316407	518.1176147460939	-958.5901489257815	-350.7433166503907	345.2997741699219	-1032.1162109375	-400.0227966308595	312.2378540039063	-1100.036865234375	-364.3257446289063	303.0350036621094	-1073.681396484375	-374.7730712890626	221.5670318603516	-1054.962890625	-460.5725708007814	86.90938568115236	-1087.680419921875	-418.3928833007814	97.1503829956055	-1018.13671875	-501.5987854003907	44.00458145141602	-1036.365844726563	-290.4717407226563	46.32366180419923	-1051.195434570313	-290.2714233398438	48.51131820678712	-1102.640747070313	-334.1876525878907	29.51174926757813	-1146.741821289063	-368.9237365722657	787.4071044921877	-719.1817626953126	-342.6016540527344	726.1864624023439	-712.0184326171876	-309.2873840332032	722.4744873046876	-713.8034667968751	-382.1990051269532	651.8654174804689	-729.3851318359376	-387.6959533691407	513.8191528320314	-733.3920898437501	-377.0317993164063	507.8894042968751	-853.9095458984377	-351.0557250976563	335.8972473144532	-748.5524291992189	-432.1377868652345	260.3627624511719	-715.0111694335939	-385.3523254394532	261.3030090332032	-721.8284301757814	-373.9142456054688	209.7244720458985	-747.1806640625001	-447.224578857422	92.28802490234376	-722.6884155273439	-406.0749511718751	93.49069213867189	-795.922546386719	-491.9707336425782	40.5022315979004	-791.8591918945315	-280.5891113281251	48.73788452148439	-733.5291137695314	-294.2065124511719	53.2250442504883	-689.0452880859376	-344.7250976562501	34.60111236572266	-653.0327758789064	
4	0.015	-230.2590942382813	1753.243041992188	-926.595642089844	-395.2976074218751	1705.492553710938	-958.7879638671877	-360.1126403808594	1688.690063476563	-817.809753417969	-425.8486633300782	1525.876708984375	-896.3731689453127	-432.9873657226564	1242.201293945313	-894.859558105469	-284.7004394531251	1503.920654296875	-915.3892211914065	-376.7065124511719	1553.796630859375	-1066.648315429688	-447.1026000976564	1379.954223632813	-1226.170166015625	-408.266326904297	1386.907958984375	-1257.203979492188	-437.1809387207032	1339.290771484375	-1281.074829101563	-426.1085510253907	1299.919677734375	-1322.47900390625	-413.2414855957032	1237.862670898438	-1277.372314453125	-294.8585205078126	1119.094360351563	-1520.717651367188	-365.5706176757813	1105.251342773438	-1529.535766601563	-283.9944763183594	1102.870727539063	-1599.823608398438	-335.7391357421876	1535.125122070313	-746.2652587890626	-373.7100830078126	1398.346069335938	-572.9770507812501	-334.8949890136719	1370.831909179688	-562.9621582031251	-377.2177124023438	1345.366577148438	-526.9741210937501	-375.3524169921876	1290.484252929688	-479.1858215332032	-393.4914550781251	1232.167358398438	-530.1585083007814	-269.5880126953126	1082.395385742188	-316.4034729003907	-336.6922607421876	1087.156494140625	-288.8774414062501	-257.5932617187501	1060.231201171875	-233.4254302978516	-294.2663574218751	1046.081665039063	-1027.567138671875	-278.3248596191407	1051.322631835938	-779.458435058594	-450.6058654785157	1105.189086914063	-894.8096313476565	-467.8344726562501	1076.30419921875	-920.8867187500002	-460.3200073242189	1075.605224609375	-864.9857177734377	-372.9660339355469	731.8103637695314	-1096.371215820313	-350.6912841796876	649.7679443359376	-1095.408813476563	-302.6240844726563	648.4929809570314	-1077.459350585938	-383.1641845703126	603.0007324218751	-1076.661254882813	-382.8507690429688	540.9612426757814	-1075.66015625	-360.8142089843751	518.1419067382814	-958.5982055664065	-350.7835388183594	345.3662109375001	-1032.109130859375	-400.0467834472657	312.2535095214844	-1100.070068359375	-364.4159851074219	303.0364685058594	-1073.682006835938	-374.8234863281251	221.5547027587891	-1054.9990234375	-460.5720825195314	86.88729095458986	-1087.68017578125	-418.3928833007814	97.15037536621097	-1018.13671875	-501.611053466797	43.98545455932618	-1036.363159179688	-290.4380798339844	46.33392333984376	-1051.213012695313	-290.2698669433594	48.50586700439455	-1102.638671875	-334.1973876953126	29.52454376220704	-1146.739379882813	-368.7475891113282	787.400085449219	-719.2357788085939	-342.5059509277344	726.1845703125001	-712.1052856445314	-309.1845397949219	722.4515380859376	-713.8879394531251	-382.1866455078126	651.8620605468751	-729.4065551757814	-387.675750732422	513.8255615234376	-733.4279174804689	-377.0904846191407	507.8839416503907	-853.939636230469	-351.0551452636719	335.8956604003907	-748.5758666992189	-432.1440734863282	260.3703613281251	-715.0198974609376	-385.3713378906251	261.3167419433594	-721.8385620117189	-373.9437866210938	209.736312866211	-747.1593017578126	-447.2696228027345	92.30087280273439	-722.7156982421876	-406.0886230468751	93.49041748046876	-795.9482421875002	-491.9830932617189	40.51130294799805	-791.836364746094	-280.5932617187501	48.77358627319337	-733.5304565429689	-294.1749572753907	53.24443435668947	-689.0768432617189	-344.7407836914063	34.63223266601563	-652.9891357421876	
